<mxfile host="app.diagrams.net" modified="2021-04-26T22:13:22.603Z" agent="5.0 (Windows NT 6.3; Win64; x64) AppleWebKit/537.36 (KHTML, like Gecko) Chrome/90.0.4430.85 Safari/537.36" etag="bjcO6yhNOSph2K2yN4Te" version="14.6.6" type="github" pages="3">
  <diagram id="opIeAeccDCq-OL6fe-vh" name="Page-1">
    <mxGraphModel dx="868" dy="482" grid="1" gridSize="10" guides="1" tooltips="1" connect="1" arrows="1" fold="1" page="1" pageScale="1" pageWidth="850" pageHeight="1100" math="0" shadow="0">
      <root>
        <mxCell id="0" />
        <mxCell id="1" parent="0" />
        <mxCell id="cL5Y7h_iFR4Uj7kbA7PB-1" value="Receipts system&amp;nbsp;" style="rounded=0;whiteSpace=wrap;html=1;" parent="1" vertex="1">
          <mxGeometry x="330" y="50" width="120" height="60" as="geometry" />
        </mxCell>
        <mxCell id="cL5Y7h_iFR4Uj7kbA7PB-2" value="Store data" style="rounded=0;whiteSpace=wrap;html=1;" parent="1" vertex="1">
          <mxGeometry x="280" y="290" width="120" height="60" as="geometry" />
        </mxCell>
        <mxCell id="cL5Y7h_iFR4Uj7kbA7PB-3" value="Save data" style="rounded=0;whiteSpace=wrap;html=1;" parent="1" vertex="1">
          <mxGeometry x="90" y="290" width="120" height="60" as="geometry" />
        </mxCell>
        <mxCell id="cL5Y7h_iFR4Uj7kbA7PB-4" value="Edit profile" style="rounded=0;whiteSpace=wrap;html=1;" parent="1" vertex="1">
          <mxGeometry x="470" y="290" width="120" height="60" as="geometry" />
        </mxCell>
        <mxCell id="cL5Y7h_iFR4Uj7kbA7PB-5" value="Retrive data" style="rounded=0;whiteSpace=wrap;html=1;" parent="1" vertex="1">
          <mxGeometry x="640" y="290" width="120" height="60" as="geometry" />
        </mxCell>
        <mxCell id="cL5Y7h_iFR4Uj7kbA7PB-6" value="Event bus&amp;nbsp;" style="rounded=0;whiteSpace=wrap;html=1;" parent="1" vertex="1">
          <mxGeometry x="80" y="160" width="650" height="70" as="geometry" />
        </mxCell>
        <mxCell id="cL5Y7h_iFR4Uj7kbA7PB-8" value="" style="edgeStyle=segmentEdgeStyle;endArrow=classic;html=1;entryX=0.46;entryY=0;entryDx=0;entryDy=0;entryPerimeter=0;" parent="1" target="cL5Y7h_iFR4Uj7kbA7PB-6" edge="1">
          <mxGeometry width="50" height="50" relative="1" as="geometry">
            <mxPoint x="387" y="110" as="sourcePoint" />
            <mxPoint x="435" y="120" as="targetPoint" />
            <Array as="points">
              <mxPoint x="387" y="110" />
              <mxPoint x="387" y="110" />
            </Array>
          </mxGeometry>
        </mxCell>
        <mxCell id="cL5Y7h_iFR4Uj7kbA7PB-9" value="Capture receipts" style="rounded=0;whiteSpace=wrap;html=1;" parent="1" vertex="1">
          <mxGeometry x="400" y="120" width="70" height="30" as="geometry" />
        </mxCell>
        <mxCell id="cL5Y7h_iFR4Uj7kbA7PB-10" value="" style="endArrow=classic;startArrow=classic;html=1;exitX=0.5;exitY=0;exitDx=0;exitDy=0;" parent="1" source="cL5Y7h_iFR4Uj7kbA7PB-3" edge="1">
          <mxGeometry width="50" height="50" relative="1" as="geometry">
            <mxPoint x="100" y="280" as="sourcePoint" />
            <mxPoint x="150" y="230" as="targetPoint" />
          </mxGeometry>
        </mxCell>
        <mxCell id="cL5Y7h_iFR4Uj7kbA7PB-11" value="" style="endArrow=classic;startArrow=classic;html=1;" parent="1" edge="1">
          <mxGeometry width="50" height="50" relative="1" as="geometry">
            <mxPoint x="341" y="290" as="sourcePoint" />
            <mxPoint x="341.48" y="228.98" as="targetPoint" />
          </mxGeometry>
        </mxCell>
        <mxCell id="cL5Y7h_iFR4Uj7kbA7PB-12" value="" style="endArrow=classic;startArrow=classic;html=1;" parent="1" edge="1">
          <mxGeometry width="50" height="50" relative="1" as="geometry">
            <mxPoint x="529.5" y="291.02" as="sourcePoint" />
            <mxPoint x="529.98" y="230.00000000000003" as="targetPoint" />
          </mxGeometry>
        </mxCell>
        <mxCell id="cL5Y7h_iFR4Uj7kbA7PB-13" value="" style="endArrow=classic;startArrow=classic;html=1;" parent="1" edge="1">
          <mxGeometry width="50" height="50" relative="1" as="geometry">
            <mxPoint x="690" y="290" as="sourcePoint" />
            <mxPoint x="690.48" y="228.98" as="targetPoint" />
          </mxGeometry>
        </mxCell>
      </root>
    </mxGraphModel>
  </diagram>
  <diagram id="G0u4-KUeL3xTqY5NFKeb" name="Page-2">
    <mxGraphModel dx="868" dy="482" grid="1" gridSize="10" guides="1" tooltips="1" connect="1" arrows="1" fold="1" page="1" pageScale="1" pageWidth="850" pageHeight="1100" math="0" shadow="0">
      <root>
        <mxCell id="JaK8UNHn8kUkffKxx-Hb-0" />
        <mxCell id="JaK8UNHn8kUkffKxx-Hb-1" parent="JaK8UNHn8kUkffKxx-Hb-0" />
        <mxCell id="JaK8UNHn8kUkffKxx-Hb-32" value="" style="shape=table;html=1;whiteSpace=wrap;startSize=0;container=1;collapsible=0;childLayout=tableLayout;" vertex="1" parent="JaK8UNHn8kUkffKxx-Hb-1">
          <mxGeometry x="280" y="30" width="320" height="40" as="geometry" />
        </mxCell>
        <mxCell id="JaK8UNHn8kUkffKxx-Hb-33" value="" style="shape=partialRectangle;html=1;whiteSpace=wrap;collapsible=0;dropTarget=0;pointerEvents=0;fillColor=none;top=0;left=0;bottom=0;right=0;points=[[0,0.5],[1,0.5]];portConstraint=eastwest;" vertex="1" parent="JaK8UNHn8kUkffKxx-Hb-32">
          <mxGeometry width="320" height="40" as="geometry" />
        </mxCell>
        <mxCell id="JaK8UNHn8kUkffKxx-Hb-34" value="Precondition: This use-case assumes User has signed up, is logged in and wants to capture receipts&amp;nbsp;" style="shape=partialRectangle;html=1;whiteSpace=wrap;connectable=0;overflow=hidden;fillColor=none;top=0;left=0;bottom=0;right=0;" vertex="1" parent="JaK8UNHn8kUkffKxx-Hb-33">
          <mxGeometry width="320" height="40" as="geometry" />
        </mxCell>
        <mxCell id="JaK8UNHn8kUkffKxx-Hb-54" value="" style="shape=table;html=1;whiteSpace=wrap;startSize=0;container=1;collapsible=0;childLayout=tableLayout;" vertex="1" parent="JaK8UNHn8kUkffKxx-Hb-1">
          <mxGeometry x="280" y="70" width="320" height="225" as="geometry" />
        </mxCell>
        <mxCell id="JaK8UNHn8kUkffKxx-Hb-55" value="" style="shape=partialRectangle;html=1;whiteSpace=wrap;collapsible=0;dropTarget=0;pointerEvents=0;fillColor=none;top=0;left=0;bottom=0;right=0;points=[[0,0.5],[1,0.5]];portConstraint=eastwest;" vertex="1" parent="JaK8UNHn8kUkffKxx-Hb-54">
          <mxGeometry width="320" height="40" as="geometry" />
        </mxCell>
        <mxCell id="JaK8UNHn8kUkffKxx-Hb-56" value="Actor: Employer" style="shape=partialRectangle;html=1;whiteSpace=wrap;connectable=0;overflow=hidden;fillColor=none;top=0;left=0;bottom=0;right=0;" vertex="1" parent="JaK8UNHn8kUkffKxx-Hb-55">
          <mxGeometry width="160" height="40" as="geometry" />
        </mxCell>
        <mxCell id="JaK8UNHn8kUkffKxx-Hb-57" value="System: Receipts" style="shape=partialRectangle;html=1;whiteSpace=wrap;connectable=0;overflow=hidden;fillColor=none;top=0;left=0;bottom=0;right=0;" vertex="1" parent="JaK8UNHn8kUkffKxx-Hb-55">
          <mxGeometry x="160" width="160" height="40" as="geometry" />
        </mxCell>
        <mxCell id="JaK8UNHn8kUkffKxx-Hb-58" value="" style="shape=partialRectangle;html=1;whiteSpace=wrap;collapsible=0;dropTarget=0;pointerEvents=0;fillColor=none;top=0;left=0;bottom=0;right=0;points=[[0,0.5],[1,0.5]];portConstraint=eastwest;" vertex="1" parent="JaK8UNHn8kUkffKxx-Hb-54">
          <mxGeometry y="40" width="320" height="185" as="geometry" />
        </mxCell>
        <mxCell id="JaK8UNHn8kUkffKxx-Hb-59" value="1. User clicks &quot;Add receipt&quot; button&lt;br&gt;3. User selects one option and captures receipt accordingly then clicks &quot;Save&quot; button&amp;nbsp;" style="shape=partialRectangle;html=1;whiteSpace=wrap;connectable=0;overflow=hidden;fillColor=none;top=0;left=0;bottom=0;right=0;" vertex="1" parent="JaK8UNHn8kUkffKxx-Hb-58">
          <mxGeometry width="160" height="185" as="geometry" />
        </mxCell>
        <mxCell id="JaK8UNHn8kUkffKxx-Hb-60" value="0. Home page of system is displayed&amp;nbsp;&lt;br&gt;2 System displays two buttons &quot;Add manually&quot; and &quot;Take a picture&quot;&lt;br&gt;4. System saves information to database and shows &quot;Receipt saved&quot; message" style="shape=partialRectangle;html=1;whiteSpace=wrap;connectable=0;overflow=hidden;fillColor=none;top=0;left=0;bottom=0;right=0;" vertex="1" parent="JaK8UNHn8kUkffKxx-Hb-58">
          <mxGeometry x="160" width="160" height="185" as="geometry" />
        </mxCell>
        <mxCell id="JaK8UNHn8kUkffKxx-Hb-61" value="" style="shape=table;html=1;whiteSpace=wrap;startSize=0;container=1;collapsible=0;childLayout=tableLayout;" vertex="1" parent="JaK8UNHn8kUkffKxx-Hb-1">
          <mxGeometry x="280" y="295" width="320" height="40" as="geometry" />
        </mxCell>
        <mxCell id="JaK8UNHn8kUkffKxx-Hb-62" value="" style="shape=partialRectangle;html=1;whiteSpace=wrap;collapsible=0;dropTarget=0;pointerEvents=0;fillColor=none;top=0;left=0;bottom=0;right=0;points=[[0,0.5],[1,0.5]];portConstraint=eastwest;" vertex="1" parent="JaK8UNHn8kUkffKxx-Hb-61">
          <mxGeometry width="320" height="40" as="geometry" />
        </mxCell>
        <mxCell id="JaK8UNHn8kUkffKxx-Hb-63" value="Post-condition: User is able to search, view and edit added receipt&amp;nbsp;&amp;nbsp;" style="shape=partialRectangle;html=1;whiteSpace=wrap;connectable=0;overflow=hidden;fillColor=none;top=0;left=0;bottom=0;right=0;" vertex="1" parent="JaK8UNHn8kUkffKxx-Hb-62">
          <mxGeometry width="320" height="40" as="geometry" />
        </mxCell>
      </root>
    </mxGraphModel>
  </diagram>
  <diagram id="jnlfi2sm4i6HeyJ2cWgS" name="Page-3">
    <mxGraphModel dx="868" dy="482" grid="1" gridSize="10" guides="1" tooltips="1" connect="1" arrows="1" fold="1" page="1" pageScale="1" pageWidth="850" pageHeight="1100" math="0" shadow="0">
      <root>
        <mxCell id="yjBMkkfuiK8w02P4XCiy-0" />
        <mxCell id="yjBMkkfuiK8w02P4XCiy-1" parent="yjBMkkfuiK8w02P4XCiy-0" />
        <mxCell id="yjBMkkfuiK8w02P4XCiy-2" value="" style="shape=table;html=1;whiteSpace=wrap;startSize=0;container=1;collapsible=0;childLayout=tableLayout;" vertex="1" parent="yjBMkkfuiK8w02P4XCiy-1">
          <mxGeometry x="280" y="40" width="320" height="40" as="geometry" />
        </mxCell>
        <mxCell id="yjBMkkfuiK8w02P4XCiy-3" value="" style="shape=partialRectangle;html=1;whiteSpace=wrap;collapsible=0;dropTarget=0;pointerEvents=0;fillColor=none;top=0;left=0;bottom=0;right=0;points=[[0,0.5],[1,0.5]];portConstraint=eastwest;" vertex="1" parent="yjBMkkfuiK8w02P4XCiy-2">
          <mxGeometry width="320" height="40" as="geometry" />
        </mxCell>
        <mxCell id="yjBMkkfuiK8w02P4XCiy-4" value="Precondition: User has signed up, is logged in and wants to view receipts&amp;nbsp;" style="shape=partialRectangle;html=1;whiteSpace=wrap;connectable=0;overflow=hidden;fillColor=none;top=0;left=0;bottom=0;right=0;" vertex="1" parent="yjBMkkfuiK8w02P4XCiy-3">
          <mxGeometry width="320" height="40" as="geometry" />
        </mxCell>
        <mxCell id="yjBMkkfuiK8w02P4XCiy-5" value="" style="shape=table;html=1;whiteSpace=wrap;startSize=0;container=1;collapsible=0;childLayout=tableLayout;" vertex="1" parent="yjBMkkfuiK8w02P4XCiy-1">
          <mxGeometry x="280" y="80" width="320" height="130" as="geometry" />
        </mxCell>
        <mxCell id="yjBMkkfuiK8w02P4XCiy-6" value="" style="shape=partialRectangle;html=1;whiteSpace=wrap;collapsible=0;dropTarget=0;pointerEvents=0;fillColor=none;top=0;left=0;bottom=0;right=0;points=[[0,0.5],[1,0.5]];portConstraint=eastwest;" vertex="1" parent="yjBMkkfuiK8w02P4XCiy-5">
          <mxGeometry width="320" height="30" as="geometry" />
        </mxCell>
        <mxCell id="yjBMkkfuiK8w02P4XCiy-7" value="Actor: Secretary" style="shape=partialRectangle;html=1;whiteSpace=wrap;connectable=0;overflow=hidden;fillColor=none;top=0;left=0;bottom=0;right=0;" vertex="1" parent="yjBMkkfuiK8w02P4XCiy-6">
          <mxGeometry width="160" height="30" as="geometry" />
        </mxCell>
        <mxCell id="yjBMkkfuiK8w02P4XCiy-8" value="System: Receipts" style="shape=partialRectangle;html=1;whiteSpace=wrap;connectable=0;overflow=hidden;fillColor=none;top=0;left=0;bottom=0;right=0;" vertex="1" parent="yjBMkkfuiK8w02P4XCiy-6">
          <mxGeometry x="160" width="160" height="30" as="geometry" />
        </mxCell>
        <mxCell id="yjBMkkfuiK8w02P4XCiy-9" value="" style="shape=partialRectangle;html=1;whiteSpace=wrap;collapsible=0;dropTarget=0;pointerEvents=0;fillColor=none;top=0;left=0;bottom=0;right=0;points=[[0,0.5],[1,0.5]];portConstraint=eastwest;" vertex="1" parent="yjBMkkfuiK8w02P4XCiy-5">
          <mxGeometry y="30" width="320" height="100" as="geometry" />
        </mxCell>
        <mxCell id="yjBMkkfuiK8w02P4XCiy-10" value="1. User confirms role&lt;br&gt;3. Selects &quot;Search receipts&quot; button&amp;nbsp;&lt;br&gt;5. Selects receipts if available&amp;nbsp;" style="shape=partialRectangle;html=1;whiteSpace=wrap;connectable=0;overflow=hidden;fillColor=none;top=0;left=0;bottom=0;right=0;" vertex="1" parent="yjBMkkfuiK8w02P4XCiy-9">
          <mxGeometry width="160" height="100" as="geometry" />
        </mxCell>
        <mxCell id="yjBMkkfuiK8w02P4XCiy-11" value="0. System verifies if it is the secretary logged in&amp;nbsp;&lt;br&gt;2. System shows home page&amp;nbsp;&lt;br&gt;4. System search&#39;s if receipt is available&amp;nbsp;&amp;nbsp;" style="shape=partialRectangle;html=1;whiteSpace=wrap;connectable=0;overflow=hidden;fillColor=none;top=0;left=0;bottom=0;right=0;" vertex="1" parent="yjBMkkfuiK8w02P4XCiy-9">
          <mxGeometry x="160" width="160" height="100" as="geometry" />
        </mxCell>
        <mxCell id="yjBMkkfuiK8w02P4XCiy-12" value="" style="shape=table;html=1;whiteSpace=wrap;startSize=0;container=1;collapsible=0;childLayout=tableLayout;" vertex="1" parent="yjBMkkfuiK8w02P4XCiy-1">
          <mxGeometry x="280" y="210" width="320" height="40" as="geometry" />
        </mxCell>
        <mxCell id="yjBMkkfuiK8w02P4XCiy-13" value="" style="shape=partialRectangle;html=1;whiteSpace=wrap;collapsible=0;dropTarget=0;pointerEvents=0;fillColor=none;top=0;left=0;bottom=0;right=0;points=[[0,0.5],[1,0.5]];portConstraint=eastwest;" vertex="1" parent="yjBMkkfuiK8w02P4XCiy-12">
          <mxGeometry width="320" height="40" as="geometry" />
        </mxCell>
        <mxCell id="yjBMkkfuiK8w02P4XCiy-14" value="Post-condition: System displays selected receipts and user is able to view selected receipts&amp;nbsp;" style="shape=partialRectangle;html=1;whiteSpace=wrap;connectable=0;overflow=hidden;fillColor=none;top=0;left=0;bottom=0;right=0;" vertex="1" parent="yjBMkkfuiK8w02P4XCiy-13">
          <mxGeometry width="320" height="40" as="geometry" />
        </mxCell>
      </root>
    </mxGraphModel>
  </diagram>
</mxfile>
